<svg width="16" height="16" viewBox="0 0 16 16" fill="none" xmlns="http://www.w3.org/2000/svg">
<rect width="16" height="16" rx="8" fill="black"/>
<path d="M4 3.88774C4 3.64668 4.16922 3.43795 4.40709 3.38561L10.6471 2.01248C10.9719 1.94101 11.28 2.18548 11.28 2.51461V4.17171C11.28 4.41277 11.1108 4.62149 10.8729 4.67384L4.63291 6.04697C4.30814 6.11844 4 5.87397 4 5.54484V3.88774Z" fill="url(#paint0_linear_29_50)"/>
<path d="M4.72 4.61387C4.72 4.37319 4.8887 4.16468 5.1261 4.11196L11.3661 2.72624C11.6911 2.65405 12 2.8986 12 3.22814V4.90966C12 5.15034 11.8313 5.35885 11.5939 5.41157L5.3539 6.7973C5.02886 6.86948 4.72 6.62493 4.72 6.29539V4.61387Z" fill="url(#paint1_linear_29_50)"/>
<path fill-rule="evenodd" clip-rule="evenodd" d="M11.4011 2.88067L5.16115 4.26639C4.9968 4.30289 4.88 4.44724 4.88 4.61387V6.29539C4.88 6.52353 5.09383 6.69283 5.31885 6.64286L11.5589 5.25714C11.7232 5.22064 11.84 5.07629 11.84 4.90966V3.22814C11.84 3 11.6262 2.8307 11.4011 2.88067ZM5.1261 4.11196C4.8887 4.16468 4.72 4.37319 4.72 4.61387V6.29539C4.72 6.62493 5.02886 6.86948 5.3539 6.7973L11.5939 5.41157C11.8313 5.35885 12 5.15034 12 4.90966V3.22814C12 2.8986 11.6911 2.65405 11.3661 2.72624L5.1261 4.11196Z" fill="url(#paint2_linear_29_50)"/>
<path d="M4 7.50239C4 7.26171 4.16871 7.0532 4.4061 7.00048L10.6461 5.61475C10.9711 5.54257 11.28 5.78712 11.28 6.11666V7.79818C11.28 8.03886 11.1113 8.24737 10.8739 8.30009L4.6339 9.68581C4.30886 9.758 4 9.51345 4 9.18391V7.50239Z" fill="url(#paint3_linear_29_50)"/>
<path d="M4.72 7.9835C4.72 7.74617 4.88414 7.53964 5.11728 7.48363L11.3573 5.98453C11.6846 5.90589 12 6.15117 12 6.4844V8.38547C12 8.6228 11.8359 8.82932 11.6027 8.88533L5.36272 10.3844C5.03538 10.4631 4.72 10.2178 4.72 9.88457V7.9835Z" fill="url(#paint4_linear_29_50)"/>
<path fill-rule="evenodd" clip-rule="evenodd" d="M11.395 6.13833L5.15504 7.63744C4.99364 7.67621 4.88 7.81919 4.88 7.9835V9.88457C4.88 10.1153 5.09834 10.2851 5.32496 10.2306L11.565 8.73153C11.7264 8.69275 11.84 8.54977 11.84 8.38547V6.4844C11.84 6.2537 11.6217 6.08389 11.395 6.13833ZM5.11728 7.48363C4.88414 7.53964 4.72 7.74617 4.72 7.9835V9.88457C4.72 10.2178 5.03538 10.4631 5.36272 10.3844L11.6027 8.88533C11.8359 8.82932 12 8.6228 12 8.38547V6.4844C12 6.15117 11.6846 5.90589 11.3573 5.98453L5.11728 7.48363Z" fill="url(#paint5_linear_29_50)"/>
<path d="M4 11.2282C4 10.9908 4.16414 10.7843 4.39728 10.7283L10.6373 9.22919C10.9646 9.15055 11.28 9.39583 11.28 9.72906V11.6301C11.28 11.8675 11.1159 12.074 10.8827 12.13L4.64272 13.6291C4.31538 13.7077 4 13.4625 4 13.1292V11.2282Z" fill="url(#paint6_linear_29_50)"/>
<path d="M4.72 11.5843C4.72 11.347 4.88414 11.1404 5.11728 11.0844L11.3573 9.58533C11.6846 9.50669 12 9.75197 12 10.0852V11.9863C12 12.2236 11.8359 12.4301 11.6027 12.4861L5.36272 13.9852C5.03538 14.0639 4.72 13.8186 4.72 13.4854V11.5843Z" fill="url(#paint7_linear_29_50)"/>
<path fill-rule="evenodd" clip-rule="evenodd" d="M11.395 9.73913L5.15504 11.2382C4.99364 11.277 4.88 11.42 4.88 11.5843V13.4854C4.88 13.7161 5.09834 13.8859 5.32496 13.8314L11.565 12.3323C11.7264 12.2936 11.84 12.1506 11.84 11.9863V10.0852C11.84 9.8545 11.6217 9.68469 11.395 9.73913ZM5.11728 11.0844C4.88414 11.1404 4.72 11.347 4.72 11.5843V13.4854C4.72 13.8186 5.03538 14.0639 5.36272 13.9852L11.6027 12.4861C11.8359 12.4301 12 12.2236 12 11.9863V10.0852C12 9.75197 11.6846 9.50669 11.3573 9.58533L5.11728 11.0844Z" fill="url(#paint8_linear_29_50)"/>
<defs>
<linearGradient id="paint0_linear_29_50" x1="7.64" y1="2.73582" x2="8.21045" y2="5.26336" gradientUnits="userSpaceOnUse">
<stop stop-color="#204ADF"/>
<stop offset="1" stop-color="#20B1DF" stop-opacity="0"/>
</linearGradient>
<linearGradient id="paint1_linear_29_50" x1="8.36" y1="3.45599" x2="8.94045" y2="6.00444" gradientUnits="userSpaceOnUse">
<stop stop-color="#204ADF"/>
<stop offset="1" stop-color="#20B1DF" stop-opacity="0"/>
</linearGradient>
<linearGradient id="paint2_linear_29_50" x1="8.36" y1="2.58546" x2="8.68962" y2="5.5442" gradientUnits="userSpaceOnUse">
<stop stop-color="white"/>
<stop offset="1" stop-color="white" stop-opacity="0"/>
</linearGradient>
<linearGradient id="paint3_linear_29_50" x1="7.64" y1="6.34451" x2="8.22045" y2="8.89296" gradientUnits="userSpaceOnUse">
<stop stop-color="#20DF9A"/>
<stop offset="1" stop-color="#21F4B5" stop-opacity="0"/>
</linearGradient>
<linearGradient id="paint4_linear_29_50" x1="8.36" y1="6.77187" x2="9.03366" y2="9.50586" gradientUnits="userSpaceOnUse">
<stop stop-color="#20DF9A"/>
<stop offset="1" stop-color="#21F4B5" stop-opacity="0"/>
</linearGradient>
<linearGradient id="paint5_linear_29_50" x1="8.36" y1="5.83012" x2="8.74496" y2="9.02426" gradientUnits="userSpaceOnUse">
<stop stop-color="white"/>
<stop offset="1" stop-color="white" stop-opacity="0"/>
</linearGradient>
<linearGradient id="paint6_linear_29_50" x1="7.64" y1="10.0165" x2="8.31366" y2="12.7505" gradientUnits="userSpaceOnUse">
<stop stop-color="#DF2020"/>
<stop offset="1" stop-color="#C420DF" stop-opacity="0"/>
</linearGradient>
<linearGradient id="paint7_linear_29_50" x1="8.36" y1="10.3727" x2="9.03366" y2="13.1067" gradientUnits="userSpaceOnUse">
<stop stop-color="#DF2020"/>
<stop offset="1" stop-color="#C420DF" stop-opacity="0"/>
</linearGradient>
<linearGradient id="paint8_linear_29_50" x1="8.36" y1="9.43092" x2="8.74496" y2="12.6251" gradientUnits="userSpaceOnUse">
<stop stop-color="white"/>
<stop offset="1" stop-color="white" stop-opacity="0"/>
</linearGradient>
</defs>
</svg>
