<svg width="17" height="16" viewBox="0 0 17 16" fill="none" xmlns="http://www.w3.org/2000/svg">
<rect x="0.5" width="16" height="16" rx="8" fill="black"/>
<path d="M4.5 3.88774C4.5 3.64668 4.66922 3.43795 4.90709 3.38561L11.1471 2.01248C11.4719 1.94101 11.78 2.18548 11.78 2.51461V4.17171C11.78 4.41277 11.6108 4.62149 11.3729 4.67384L5.13291 6.04697C4.80814 6.11843 4.5 5.87397 4.5 5.54484V3.88774Z" fill="url(#paint0_linear_29_120)"/>
<path d="M5.22 4.61387C5.22 4.37319 5.38871 4.16468 5.6261 4.11196L11.8661 2.72624C12.1911 2.65405 12.5 2.8986 12.5 3.22814V4.90966C12.5 5.15034 12.3313 5.35885 12.0939 5.41157L5.8539 6.7973C5.52886 6.86948 5.22 6.62493 5.22 6.29539V4.61387Z" fill="url(#paint1_linear_29_120)"/>
<path fill-rule="evenodd" clip-rule="evenodd" d="M11.9011 2.88067L5.66115 4.26639C5.4968 4.30289 5.38 4.44724 5.38 4.61387V6.29539C5.38 6.52353 5.59383 6.69283 5.81885 6.64286L12.0589 5.25714C12.2232 5.22064 12.34 5.07629 12.34 4.90966V3.22814C12.34 3 12.1262 2.8307 11.9011 2.88067ZM5.6261 4.11196C5.38871 4.16468 5.22 4.37319 5.22 4.61387V6.29539C5.22 6.62493 5.52886 6.86948 5.8539 6.7973L12.0939 5.41157C12.3313 5.35885 12.5 5.15034 12.5 4.90966V3.22814C12.5 2.8986 12.1911 2.65405 11.8661 2.72624L5.6261 4.11196Z" fill="url(#paint2_linear_29_120)"/>
<path d="M4.5 7.50239C4.5 7.26171 4.66871 7.0532 4.9061 7.00048L11.1461 5.61475C11.4711 5.54257 11.78 5.78712 11.78 6.11666V7.79818C11.78 8.03886 11.6113 8.24737 11.3739 8.30009L5.1339 9.68581C4.80886 9.758 4.5 9.51345 4.5 9.18391V7.50239Z" fill="url(#paint3_linear_29_120)"/>
<path d="M5.22 7.9835C5.22 7.74617 5.38414 7.53964 5.61728 7.48363L11.8573 5.98453C12.1846 5.90589 12.5 6.15117 12.5 6.4844V8.38547C12.5 8.6228 12.3359 8.82932 12.1027 8.88533L5.86272 10.3844C5.53538 10.4631 5.22 10.2178 5.22 9.88457V7.9835Z" fill="url(#paint4_linear_29_120)"/>
<path fill-rule="evenodd" clip-rule="evenodd" d="M11.895 6.13833L5.65504 7.63744C5.49364 7.67621 5.38 7.81919 5.38 7.9835V9.88457C5.38 10.1153 5.59834 10.2851 5.82496 10.2306L12.065 8.73153C12.2264 8.69275 12.34 8.54977 12.34 8.38547V6.4844C12.34 6.2537 12.1217 6.08389 11.895 6.13833ZM5.61728 7.48363C5.38414 7.53964 5.22 7.74617 5.22 7.9835V9.88457C5.22 10.2178 5.53538 10.4631 5.86272 10.3844L12.1027 8.88533C12.3359 8.82932 12.5 8.6228 12.5 8.38547V6.4844C12.5 6.15117 12.1846 5.90589 11.8573 5.98453L5.61728 7.48363Z" fill="url(#paint5_linear_29_120)"/>
<path d="M4.5 11.2282C4.5 10.9908 4.66414 10.7843 4.89728 10.7283L11.1373 9.22919C11.4646 9.15055 11.78 9.39583 11.78 9.72906V11.6301C11.78 11.8675 11.6159 12.074 11.3827 12.13L5.14272 13.6291C4.81538 13.7077 4.5 13.4625 4.5 13.1292V11.2282Z" fill="url(#paint6_linear_29_120)"/>
<path d="M5.22 11.5843C5.22 11.347 5.38414 11.1404 5.61728 11.0844L11.8573 9.58533C12.1846 9.50669 12.5 9.75197 12.5 10.0852V11.9863C12.5 12.2236 12.3359 12.4301 12.1027 12.4861L5.86272 13.9852C5.53538 14.0639 5.22 13.8186 5.22 13.4854V11.5843Z" fill="url(#paint7_linear_29_120)"/>
<path fill-rule="evenodd" clip-rule="evenodd" d="M11.895 9.73913L5.65504 11.2382C5.49364 11.277 5.38 11.42 5.38 11.5843V13.4854C5.38 13.7161 5.59834 13.8859 5.82496 13.8314L12.065 12.3323C12.2264 12.2936 12.34 12.1506 12.34 11.9863V10.0852C12.34 9.8545 12.1217 9.68469 11.895 9.73913ZM5.61728 11.0844C5.38414 11.1404 5.22 11.347 5.22 11.5843V13.4854C5.22 13.8186 5.53538 14.0639 5.86272 13.9852L12.1027 12.4861C12.3359 12.4301 12.5 12.2236 12.5 11.9863V10.0852C12.5 9.75197 12.1846 9.50669 11.8573 9.58533L5.61728 11.0844Z" fill="url(#paint8_linear_29_120)"/>
<path d="M8.5 16C12.9183 16 16.5 12.4183 16.5 8C16.5 3.58172 12.9183 0 8.5 0C4.08172 0 0.5 3.58172 0.5 8C0.5 12.4183 4.08172 16 8.5 16Z" fill="#2775C9"/>
<path d="M8.5 14C5.18596 14 2.5 11.314 2.5 8C2.5 4.68596 5.18596 2 8.5 2C11.814 2 14.5 4.68596 14.5 8C14.5 9.5913 13.8679 11.1174 12.7426 12.2426C11.6174 13.3679 10.0913 14 8.5 14ZM8.14255 5.77362C7.81427 5.7899 7.50392 5.9283 7.27245 6.16167C7.04098 6.39503 6.9051 6.70649 6.89149 7.03489C6.89149 7.65277 7.26936 8.05617 8.07106 8.22468L8.63277 8.35745C9.17915 8.48511 9.40383 8.66894 9.40383 8.98043C9.40383 9.29191 9.01064 9.5983 8.5 9.5983C8.31862 9.61493 8.13622 9.58017 7.97368 9.49799C7.81113 9.41581 7.67499 9.28954 7.58085 9.13362C7.55296 9.07445 7.50892 9.02437 7.45381 8.98914C7.39871 8.95391 7.33477 8.93496 7.26936 8.93447H6.96809C6.94492 8.93876 6.92283 8.94759 6.90308 8.96045C6.88334 8.97331 6.86634 8.98995 6.85305 9.00941C6.83976 9.02887 6.83045 9.05076 6.82565 9.07383C6.82086 9.0969 6.82067 9.12069 6.82511 9.14383C6.89849 9.44335 7.06912 9.71008 7.31029 9.90227C7.55145 10.0945 7.84953 10.2013 8.15787 10.206V10.6349C8.15787 10.7304 8.1958 10.8219 8.26331 10.8895C8.33083 10.957 8.42239 10.9949 8.51787 10.9949C8.61335 10.9949 8.70492 10.957 8.77243 10.8895C8.83994 10.8219 8.87787 10.7304 8.87787 10.6349V10.2009C9.22653 10.1969 9.55987 10.057 9.80689 9.81091C10.0539 9.56484 10.1951 9.23204 10.2004 8.8834C10.2004 8.23489 9.82766 7.86213 8.94426 7.67319L8.43362 7.56085C7.92298 7.43319 7.68298 7.26468 7.68298 6.97872C7.68298 6.69277 7.98936 6.37617 8.5 6.37617C8.66082 6.35937 8.82306 6.38949 8.96714 6.46289C9.11121 6.53628 9.23096 6.64982 9.31191 6.78979C9.34473 6.85969 9.39669 6.91885 9.46176 6.96043C9.52683 7.002 9.60236 7.02428 9.67957 7.02468H9.91957C9.97414 7.01133 10.0213 6.97711 10.0509 6.92937C10.0805 6.88162 10.0902 6.82417 10.0779 6.76936C10.0087 6.49282 9.85394 6.24519 9.6357 6.06179C9.41746 5.8784 9.14688 5.76861 8.86255 5.74809V5.39574C8.86255 5.30027 8.82462 5.2087 8.75711 5.14119C8.6896 5.07367 8.59803 5.03574 8.50255 5.03574C8.40708 5.03574 8.31551 5.07367 8.24799 5.14119C8.18048 5.2087 8.14255 5.30027 8.14255 5.39574V5.77362ZM4.00128 8C4.00186 8.94063 4.29794 9.85731 4.8477 10.6206C5.39746 11.3838 6.17312 11.9551 7.06511 12.2536H7.1366C7.19754 12.2536 7.25599 12.2294 7.29908 12.1863C7.34217 12.1432 7.36638 12.0848 7.36638 12.0238V11.9166C7.36655 11.8215 7.33849 11.7286 7.28577 11.6495C7.23304 11.5704 7.15802 11.5087 7.07021 11.4723C6.37554 11.1919 5.78052 10.7104 5.36151 10.0894C4.9425 9.46839 4.71863 8.73636 4.71863 7.98723C4.71863 7.23811 4.9425 6.50608 5.36151 5.8851C5.78052 5.26412 6.37554 4.78252 7.07021 4.50213C7.15762 4.46662 7.23246 4.40589 7.28521 4.32768C7.33796 4.24947 7.36622 4.15732 7.36638 4.06298V3.94553C7.36671 3.91105 7.35872 3.87699 7.34309 3.84625C7.32746 3.81552 7.30464 3.789 7.27658 3.76896C7.24852 3.74891 7.21604 3.73593 7.18189 3.73111C7.14774 3.72629 7.11294 3.72978 7.08043 3.74128C6.18475 4.03749 5.40517 4.60839 4.85242 5.37289C4.29968 6.13739 4.00186 7.05661 4.00128 8ZM12.9987 8C12.9971 7.06024 12.7005 6.14471 12.1508 5.38248C11.6011 4.62025 10.8261 4.04977 9.93489 3.75149H9.8583C9.79465 3.75149 9.7336 3.77678 9.68859 3.82178C9.64358 3.86679 9.6183 3.92784 9.6183 3.99149V4.06809C9.62036 4.16657 9.65086 4.26236 9.70613 4.3439C9.7614 4.42545 9.83907 4.48926 9.92979 4.52766C10.6229 4.80887 11.2163 5.2905 11.6341 5.9109C12.0519 6.5313 12.2751 7.26225 12.2751 8.01021C12.2751 8.75818 12.0519 9.48913 11.6341 10.1095C11.2163 10.7299 10.6229 11.2116 9.92979 11.4928C9.8408 11.5316 9.76472 11.5949 9.71045 11.6754C9.65619 11.7559 9.62599 11.8502 9.6234 11.9472V12.034C9.62384 12.0719 9.63323 12.1091 9.65079 12.1427C9.66836 12.1762 9.69361 12.2051 9.72449 12.227C9.75536 12.2489 9.79098 12.2632 9.82844 12.2687C9.86589 12.2742 9.90412 12.2708 9.94 12.2587C10.8319 11.959 11.607 11.3866 12.1559 10.6224C12.7047 9.85823 12.9996 8.94088 12.9987 8Z" fill="white"/>
<defs>
<linearGradient id="paint0_linear_29_120" x1="8.14" y1="2.73582" x2="8.71045" y2="5.26336" gradientUnits="userSpaceOnUse">
<stop stop-color="#204ADF"/>
<stop offset="1" stop-color="#20B1DF" stop-opacity="0"/>
</linearGradient>
<linearGradient id="paint1_linear_29_120" x1="8.86" y1="3.45599" x2="9.44045" y2="6.00444" gradientUnits="userSpaceOnUse">
<stop stop-color="#204ADF"/>
<stop offset="1" stop-color="#20B1DF" stop-opacity="0"/>
</linearGradient>
<linearGradient id="paint2_linear_29_120" x1="8.86" y1="2.58546" x2="9.18962" y2="5.5442" gradientUnits="userSpaceOnUse">
<stop stop-color="white"/>
<stop offset="1" stop-color="white" stop-opacity="0"/>
</linearGradient>
<linearGradient id="paint3_linear_29_120" x1="8.14" y1="6.34451" x2="8.72045" y2="8.89296" gradientUnits="userSpaceOnUse">
<stop stop-color="#20DF9A"/>
<stop offset="1" stop-color="#21F4B5" stop-opacity="0"/>
</linearGradient>
<linearGradient id="paint4_linear_29_120" x1="8.86" y1="6.77187" x2="9.53366" y2="9.50586" gradientUnits="userSpaceOnUse">
<stop stop-color="#20DF9A"/>
<stop offset="1" stop-color="#21F4B5" stop-opacity="0"/>
</linearGradient>
<linearGradient id="paint5_linear_29_120" x1="8.86" y1="5.83012" x2="9.24497" y2="9.02426" gradientUnits="userSpaceOnUse">
<stop stop-color="white"/>
<stop offset="1" stop-color="white" stop-opacity="0"/>
</linearGradient>
<linearGradient id="paint6_linear_29_120" x1="8.14" y1="10.0165" x2="8.81366" y2="12.7505" gradientUnits="userSpaceOnUse">
<stop stop-color="#DF2020"/>
<stop offset="1" stop-color="#C420DF" stop-opacity="0"/>
</linearGradient>
<linearGradient id="paint7_linear_29_120" x1="8.86" y1="10.3727" x2="9.53366" y2="13.1067" gradientUnits="userSpaceOnUse">
<stop stop-color="#DF2020"/>
<stop offset="1" stop-color="#C420DF" stop-opacity="0"/>
</linearGradient>
<linearGradient id="paint8_linear_29_120" x1="8.86" y1="9.43092" x2="9.24497" y2="12.6251" gradientUnits="userSpaceOnUse">
<stop stop-color="white"/>
<stop offset="1" stop-color="white" stop-opacity="0"/>
</linearGradient>
</defs>
</svg>
